<?xml version="1.0" encoding="UTF-8"?>
<svg xmlns="http://www.w3.org/2000/svg" viewBox="0 0 100 100" aria-hidden="true">
  <defs>
    <radialGradient id="bgGlow" cx="50%" cy="40%" r="70%">
      <stop offset="0%" stop-color="#122036" stop-opacity="1"/>
      <stop offset="100%" stop-color="#07090f" stop-opacity="1"/>
    </radialGradient>
    <linearGradient id="dropFill" x1="50%" y1="0%" x2="50%" y2="100%">
      <stop offset="0%" stop-color="#7adfff"/>
      <stop offset="60%" stop-color="#4dd2ff"/>
      <stop offset="100%" stop-color="#0c8fbf"/>
    </linearGradient>
    <linearGradient id="boltFill" x1="50%" y1="0%" x2="50%" y2="100%">
      <stop offset="0%" stop-color="#fff5b8"/>
      <stop offset="100%" stop-color="#ffb04a"/>
    </linearGradient>
    <filter id="dropShadow" x="-20%" y="-20%" width="140%" height="140%">
      <feGaussianBlur stdDeviation="1.6" in="SourceAlpha"/>
      <feOffset dx="0" dy="1" result="off"/>
      <feMerge>
        <feMergeNode in="off"/>
        <feMergeNode in="SourceGraphic"/>
      </feMerge>
    </filter>
  </defs>

  <rect width="100" height="100" fill="#07090f"/>

  <g transform="translate(18 18) scale(1.0)">
    <rect width="64" height="64" rx="14" ry="14" fill="url(#bgGlow)"/>
    <path d="M40 18 C 51 30, 53 42, 40 50 C 27 42, 29 30, 40 18 Z"
          fill="url(#dropFill)" filter="url(#dropShadow)" opacity="0.95"/>
    <path d="M37 28 C 35 32, 35 36, 37 39"
          stroke="rgba(255,255,255,0.55)" stroke-width="1.4" stroke-linecap="round" fill="none"/>
    <path d="M25 8 L13 32 L21 32 L17 56 L33 26 L25 26 L29 8 Z"
          fill="url(#boltFill)" filter="url(#dropShadow)"/>
  </g>
</svg>
