<svg xmlns="http://www.w3.org/2000/svg" viewBox="0 0 534 534" role="img" aria-label="LocalSky"><title>LocalSky</title><rect width="534" height="534" rx="70" ry="70" fill="#ffffff"/><g transform="translate(32.0 32.0) scale(0.8800)"><path fill="#2a3139" fill-rule="evenodd" d="M225.5,436.0L193.5,404.0L198.4,404.0C202.6,404.0 203.1,403.8 202.5,402.2C202.2,401.3 201.6,396.8 201.3,392.3L200.7,384.1L169.9,383.8C152.9,383.6 139.0,383.7 139.0,383.9C139.0,384.0 158.0,403.0 181.2,426.1L223.5,467.9L240.5,468.0L257.5,468.0L225.5,436.0Z M356.5,426.2C379.6,403.3 398.6,384.3 398.7,384.0C398.9,383.7 385.3,383.5 368.6,383.5L338.3,383.5L337.1,392.7C336.5,397.7 336.0,402.4 336.0,402.9C336.0,403.5 337.9,404.0 340.2,404.0L344.5,404.0L312.5,436.0L280.5,468.0L297.5,468.0L314.5,468.0L356.5,426.2Z M206.0,357.5C206.0,356.7 208.4,351.3 211.4,345.5L216.7,335.0L169.0,335.0C124.8,335.0 120.8,334.9 113.6,333.0C71.0,322.1 49.4,273.0 69.2,232.0C82.2,205.0 115.5,188.6 146.6,193.9C165.9,197.2 184.1,206.9 207.1,226.3L214.2,232.3L222.7,223.8L231.2,215.3L222.3,207.8C199.0,188.2 181.0,177.5 164.5,173.4C160.7,172.5 156.9,171.6 156.3,171.4C155.3,171.1 155.5,169.8 157.0,166.0C174.4,121.8 219.5,92.0 268.9,92.0C316.8,92.0 358.4,118.2 379.1,161.3C381.4,166.1 383.1,170.3 382.8,170.5C382.5,170.8 378.8,171.9 374.4,173.1C356.8,177.7 338.5,188.5 315.7,207.8L306.8,215.3L315.3,223.8L323.8,232.3L330.6,226.4C359.3,201.7 382.8,191.8 408.8,193.3C460.1,196.2 491.7,250.5 469.0,296.5C460.7,313.2 447.9,324.7 429.8,331.7L422.5,334.5L371.8,335.0L321.1,335.5L324.2,340.5C325.9,343.2 328.6,348.4 330.1,352.0L332.9,358.5L373.2,358.8C417.1,359.1 424.2,358.6 437.6,354.1C465.8,344.6 490.3,317.9 497.4,288.9C499.6,279.9 499.6,248.9 497.5,240.5C487.5,202.2 454.3,174.0 413.9,169.5L408.2,168.9L406.0,162.7C389.1,116.0 349.4,81.9 299.3,70.8C284.9,67.6 253.9,67.6 239.4,70.8C189.1,81.7 150.6,114.2 133.4,160.0L130.2,168.5L125.3,169.3C86.9,175.5 62.6,192.1 47.3,222.5C19.1,278.5 54.0,347.6 115.7,358.0C125.3,359.6 206.0,359.2 206.0,357.5Z M282.5,268.6C287.4,266.3 295.0,260.1 295.0,258.3C295.0,257.9 291.3,253.8 286.7,249.2L278.5,241.0L265.1,254.4L251.8,267.8L256.6,269.3C266.5,272.5 274.5,272.3 282.5,268.6Z"/><path fill="#1490dc" fill-rule="evenodd" d="M280.9,426.9C307.4,418.5 321.2,392.1 311.7,368.0C308.3,359.4 303.9,351.1 296.8,340.1C285.3,322.2 275.3,305.8 272.8,300.5C269.9,294.6 268.7,295.0 264.4,303.0C259.6,311.8 250.1,327.4 242.0,339.5C227.5,361.3 224.7,368.3 224.6,384.0C224.5,394.8 224.7,395.9 227.6,402.0C233.2,413.9 242.7,422.1 256.5,426.8C260.6,428.2 276.6,428.2 280.9,426.9Z M258.3,412.6C238.9,405.5 232.4,383.8 243.7,364.2C246.8,358.8 247.0,359.0 246.1,366.6C243.8,386.1 255.5,405.0 273.5,411.1C275.7,411.8 277.9,412.8 278.4,413.2C279.9,414.5 261.9,413.9 258.3,412.6Z M187.3,310.6C189.1,309.8 207.6,292.0 229.4,270.1C266.7,232.6 268.3,231.1 270.4,232.5C271.5,233.4 284.6,246.1 299.5,260.8C314.4,275.5 332.0,292.9 338.8,299.5L351.0,311.4L379.3,311.6C410.2,311.9 417.4,311.1 426.5,307.0C454.8,294.1 461.4,254.8 439.1,232.2C422.7,215.6 398.0,213.5 373.2,226.5C366.9,229.8 358.0,237.0 358.0,238.8C358.0,240.1 360.1,242.4 366.4,248.0C373.0,253.8 374.3,253.9 381.4,249.1C390.5,243.0 394.9,241.5 404.5,241.5C413.9,241.5 415.9,242.2 421.8,247.4C432.2,256.6 430.9,276.4 419.4,284.4C413.5,288.4 409.5,288.9 384.0,289.0L361.4,289.0L349.5,277.3C342.9,270.9 325.8,254.1 311.4,240.1C297.1,226.0 284.7,214.1 283.9,213.5C276.9,208.6 264.5,207.9 256.6,211.9C253.4,213.6 240.2,226.0 214.7,251.2L177.5,288.0L150.9,288.0L124.4,288.0L119.7,285.1C107.5,277.3 105.1,259.2 114.9,248.7C119.7,243.4 124.6,241.5 133.5,241.5C141.8,241.5 145.7,242.9 160.3,251.1L164.1,253.2L167.5,250.8C172.2,247.5 180.0,240.1 180.0,239.0C180.0,235.8 163.1,224.5 154.5,221.8C135.0,215.7 119.4,217.0 106.3,225.7C70.4,249.5 84.1,307.2 126.6,310.9C143.1,312.4 183.7,312.2 187.3,310.6Z M246.8,192.2C259.0,184.1 279.3,183.8 290.4,191.6C293.8,194.0 296.0,193.2 303.1,187.4C312.1,180.1 312.0,179.3 302.2,172.7C285.6,161.5 259.9,159.9 242.0,169.0C235.5,172.3 228.0,178.2 228.0,180.0C228.0,181.5 233.1,186.2 240.4,191.8C244.0,194.4 243.6,194.4 246.8,192.2Z M215.0,160.1C224.3,152.0 233.7,146.7 245.0,142.9C262.2,137.3 285.0,138.5 301.8,146.2C308.6,149.3 321.9,158.2 325.9,162.4C330.1,166.7 330.6,166.8 336.7,163.2C339.3,161.7 343.2,159.6 345.2,158.7C350.5,156.2 350.1,154.8 341.2,146.0C304.7,109.5 245.4,106.6 204.4,139.3C195.9,146.1 188.8,154.3 189.6,156.3C190.1,157.4 205.5,165.8 207.3,166.0C207.7,166.0 211.2,163.3 215.0,160.1Z"/></g></svg>